<svg id="Layer_1" enable-background="new 0 0 464 464" height="512" viewBox="0 0 464 464" width="512" xmlns="http://www.w3.org/2000/svg"><g><path d="m464 238.755v71.74c0 8.84-7.16 16-16 16h-22.19v-103.74h6.29c0-126.784-.061-118.584.11-119.66-9.31-3.25-15.98-12.11-15.98-22.53 0-13.19 10.68-23.87 23.87-23.87 13.18 0 23.87 10.68 23.87 23.87 0 10.42-6.68 19.28-15.98 22.53.171 1.076.11-7.106.11 119.66 8.79.05 15.9 7.19 15.9 16z"/><g><path d="m0 373.917v17.387c0 8.837 7.164 16 16 16h377.806c8.837 0 16-7.163 16-16v-17.387z"/><path d="m141.807 191.337v166.58h126.193v-166.58zm59.716 134.592c-1.1 4.259-5.446 6.852-9.747 5.745-4.277-1.105-6.85-5.469-5.745-9.747 6.912-26.76 17.707-51.941 32.179-75.11-15.259-1.04-20.557-11.293-42.467-3.001-4.129 1.562-8.749-.519-10.313-4.651-1.563-4.132.519-8.75 4.651-10.313 19.703-7.453 30.946-3.543 39.979-.401 7.728 2.688 12.391 4.309 22.813-1.75 3.286-1.907 7.458-1.244 9.986 1.587 2.53 2.833 2.721 7.054.455 10.102-19.507 26.251-33.569 55.704-41.791 87.539z"/><path d="m0 191.337v166.58h125.807v-166.58zm63.023 134.592c-1.1 4.259-5.446 6.852-9.747 5.745-4.277-1.105-6.85-5.469-5.745-9.747 6.912-26.76 17.707-51.941 32.179-75.11-15.259-1.04-20.557-11.293-42.467-3.001-4.129 1.562-8.75-.519-10.313-4.651s.519-8.75 4.651-10.313c19.703-7.453 30.946-3.543 39.979-.401 7.728 2.688 12.391 4.309 22.813-1.75 3.286-1.907 7.458-1.244 9.986 1.587 2.53 2.833 2.721 7.054.455 10.102-19.507 26.251-33.569 55.704-41.791 87.539z"/><path d="m409.806 175.337v-17.387c0-8.837-7.163-16-16-16h-377.806c-8.836 0-16 7.163-16 16v17.387z"/><path d="m409.806 191.337h-125.806v166.58h125.806zm-71.783 134.592c-1.1 4.259-5.446 6.852-9.747 5.745-4.277-1.105-6.85-5.469-5.745-9.747 6.912-26.76 17.707-51.941 32.179-75.11-15.259-1.04-20.557-11.293-42.467-3.001-4.13 1.562-8.75-.519-10.313-4.651s.519-8.75 4.651-10.313c19.702-7.453 30.946-3.543 39.979-.401 7.728 2.688 12.391 4.309 22.813-1.75 3.286-1.907 7.458-1.244 9.986 1.587 2.53 2.833 2.721 7.054.455 10.102-19.507 26.251-33.569 55.704-41.791 87.539z"/></g></g></svg>