<?xml version="1.0" encoding="UTF-8"?>
<svg id="Layer_1" data-name="Layer 1" xmlns="http://www.w3.org/2000/svg" viewBox="0 0 1180 827.95">
  <defs>
    <style>
      .cls-1 {
        fill: #f20808;
      }
    </style>
  </defs>
  <path class="cls-1" d="M567.45,822.07l-171.1-417.49-54.26,132.41c-1.46,3.56-4.92,5.88-8.76,5.88H9.47c-5.23,0-9.47-4.24-9.47-9.47v-80.18c0-5.23,4.24-9.47,9.47-9.47H273.18l114.4-279.19c3.21-7.84,14.31-7.84,17.52,0l171.09,417.46,54.23-132.39c1.46-3.56,4.92-5.88,8.76-5.88h383.01c16.75,0,32.18-7.15,43.47-20.13,12.05-13.86,17.23-31.91,14.57-50.83-4.14-29.53-30.54-51.81-61.41-51.81h-121.46c-45.2,0-88.31-19.76-118.26-54.2-30.71-35.31-44.53-82.56-37.93-129.63C752.14,58.96,820.74,0,900.74,0h212.46c5.23,0,9.47,4.24,9.47,9.47V89.64c0,5.23-4.24,9.47-9.47,9.47h-212.46c-30.87,0-57.27,22.28-61.41,51.81-2.65,18.92,2.53,36.98,14.57,50.83,11.29,12.98,26.72,20.13,43.47,20.13h121.46c80,0,148.6,58.96,159.57,137.16,6.6,47.07-7.22,94.32-37.93,129.63-29.96,34.45-73.06,54.2-118.26,54.2h-322.85l-114.37,279.2c-3.21,7.84-14.31,7.84-17.52,0Z"/>
</svg>