<svg width="257" height="61" viewBox="0 0 257 61" fill="none" xmlns="http://www.w3.org/2000/svg">
<path d="M18.2593 17.996C18.2593 18.1427 18.2006 18.2747 18.0833 18.392C17.9953 18.48 17.878 18.524 17.7313 18.524H8.5793C8.43263 18.524 8.3593 18.5973 8.3593 18.744V25.696C8.3593 25.8427 8.43263 25.916 8.5793 25.916H13.8153C13.962 25.916 14.0793 25.9747 14.1673 26.092C14.2846 26.18 14.3433 26.2973 14.3433 26.444V30.712C14.3433 30.8587 14.2846 30.9907 14.1673 31.108C14.0793 31.196 13.962 31.24 13.8153 31.24H8.5793C8.43263 31.24 8.3593 31.3133 8.3593 31.46V43.472C8.3593 43.6187 8.30063 43.7507 8.1833 43.868C8.0953 43.956 7.97797 44 7.8313 44H2.6833C2.53663 44 2.40463 43.956 2.2873 43.868C2.1993 43.7507 2.1553 43.6187 2.1553 43.472V13.728C2.1553 13.5813 2.1993 13.464 2.2873 13.376C2.40463 13.2587 2.53663 13.2 2.6833 13.2H17.7313C17.878 13.2 17.9953 13.2587 18.0833 13.376C18.2006 13.464 18.2593 13.5813 18.2593 13.728V17.996ZM31.0588 44C30.7362 44 30.5308 43.8533 30.4428 43.56L27.0548 31.416C26.9962 31.2987 26.9228 31.24 26.8348 31.24H25.3388C25.1922 31.24 25.1188 31.3133 25.1188 31.46V43.472C25.1188 43.6187 25.0602 43.7507 24.9428 43.868C24.8548 43.956 24.7375 44 24.5908 44H19.4428C19.2962 44 19.1642 43.956 19.0468 43.868C18.9588 43.7507 18.9148 43.6187 18.9148 43.472V13.728C18.9148 13.5813 18.9588 13.464 19.0468 13.376C19.1642 13.2587 19.2962 13.2 19.4428 13.2H28.3308C29.9442 13.2 31.3815 13.596 32.6428 14.388C33.9042 15.1507 34.8722 16.236 35.5468 17.644C36.2508 19.052 36.6028 20.6653 36.6028 22.484C36.6028 24.2147 36.2655 25.74 35.5908 27.06C34.9455 28.38 34.0362 29.4067 32.8628 30.14C32.8042 30.1693 32.7602 30.2133 32.7308 30.272C32.7015 30.3013 32.7015 30.3453 32.7308 30.404L36.7788 43.384L36.8228 43.56C36.8228 43.8533 36.6615 44 36.3388 44H31.0588ZM25.3388 18.524C25.1922 18.524 25.1188 18.5973 25.1188 18.744V26.268C25.1188 26.4147 25.1922 26.488 25.3388 26.488H27.3188C28.2282 26.488 28.9615 26.136 29.5188 25.432C30.1055 24.6987 30.3988 23.7307 30.3988 22.528C30.3988 21.296 30.1055 20.328 29.5188 19.624C28.9615 18.8907 28.2282 18.524 27.3188 18.524H25.3388ZM54.0138 17.996C54.0138 18.1427 53.9551 18.2747 53.8378 18.392C53.7498 18.48 53.6324 18.524 53.4858 18.524H44.2898C44.1431 18.524 44.0698 18.5973 44.0698 18.744V25.696C44.0698 25.8427 44.1431 25.916 44.2898 25.916H49.5698C49.7164 25.916 49.8338 25.9747 49.9218 26.092C50.0391 26.18 50.0978 26.2973 50.0978 26.444V30.712C50.0978 30.8587 50.0391 30.9907 49.9218 31.108C49.8338 31.196 49.7164 31.24 49.5698 31.24H44.2898C44.1431 31.24 44.0698 31.3133 44.0698 31.46V38.456C44.0698 38.6027 44.1431 38.676 44.2898 38.676H53.4858C53.6324 38.676 53.7498 38.7347 53.8378 38.852C53.9551 38.94 54.0138 39.0573 54.0138 39.204V43.472C54.0138 43.6187 53.9551 43.7507 53.8378 43.868C53.7498 43.956 53.6324 44 53.4858 44H38.3938C38.2471 44 38.1151 43.956 37.9978 43.868C37.9098 43.7507 37.8658 43.6187 37.8658 43.472V13.728C37.8658 13.5813 37.9098 13.464 37.9978 13.376C38.1151 13.2587 38.2471 13.2 38.3938 13.2H53.4858C53.6324 13.2 53.7498 13.2587 53.8378 13.376C53.9551 13.464 54.0138 13.5813 54.0138 13.728V17.996ZM71.5467 17.996C71.5467 18.1427 71.4881 18.2747 71.3707 18.392C71.2827 18.48 71.1654 18.524 71.0187 18.524H61.8227C61.6761 18.524 61.6027 18.5973 61.6027 18.744V25.696C61.6027 25.8427 61.6761 25.916 61.8227 25.916H67.1027C67.2494 25.916 67.3667 25.9747 67.4547 26.092C67.5721 26.18 67.6307 26.2973 67.6307 26.444V30.712C67.6307 30.8587 67.5721 30.9907 67.4547 31.108C67.3667 31.196 67.2494 31.24 67.1027 31.24H61.8227C61.6761 31.24 61.6027 31.3133 61.6027 31.46V38.456C61.6027 38.6027 61.6761 38.676 61.8227 38.676H71.0187C71.1654 38.676 71.2827 38.7347 71.3707 38.852C71.4881 38.94 71.5467 39.0573 71.5467 39.204V43.472C71.5467 43.6187 71.4881 43.7507 71.3707 43.868C71.2827 43.956 71.1654 44 71.0187 44H55.9267C55.7801 44 55.6481 43.956 55.5307 43.868C55.4427 43.7507 55.3987 43.6187 55.3987 43.472V13.728C55.3987 13.5813 55.4427 13.464 55.5307 13.376C55.6481 13.2587 55.7801 13.2 55.9267 13.2H71.0187C71.1654 13.2 71.2827 13.2587 71.3707 13.376C71.4881 13.464 71.5467 13.5813 71.5467 13.728V17.996ZM156.394 44C156.072 44 155.881 43.8387 155.822 43.516L149.53 13.772L149.486 13.596C149.486 13.332 149.648 13.2 149.97 13.2H155.646C155.998 13.2 156.189 13.3613 156.218 13.684L159.254 33.044C159.284 33.1613 159.328 33.22 159.386 33.22C159.445 33.22 159.489 33.1613 159.518 33.044L162.466 13.684C162.496 13.3613 162.686 13.2 163.038 13.2H168.538C168.92 13.2 169.066 13.3907 168.978 13.772L162.642 43.516C162.584 43.8387 162.393 44 162.07 44H156.394ZM170.707 44C170.56 44 170.428 43.956 170.311 43.868C170.223 43.7507 170.179 43.6187 170.179 43.472V13.728C170.179 13.5813 170.223 13.464 170.311 13.376C170.428 13.2587 170.56 13.2 170.707 13.2H175.855C176.001 13.2 176.119 13.2587 176.207 13.376C176.324 13.464 176.383 13.5813 176.383 13.728V43.472C176.383 43.6187 176.324 43.7507 176.207 43.868C176.119 43.956 176.001 44 175.855 44H170.707ZM179.087 44C178.941 44 178.809 43.956 178.691 43.868C178.603 43.7507 178.559 43.6187 178.559 43.472V13.728C178.559 13.5813 178.603 13.464 178.691 13.376C178.809 13.2587 178.941 13.2 179.087 13.2H187.051C189.721 13.2 191.862 13.9773 193.475 15.532C195.089 17.0867 195.895 19.1547 195.895 21.736V35.464C195.895 38.0453 195.089 40.1133 193.475 41.668C191.862 43.2227 189.721 44 187.051 44H179.087ZM184.763 38.456C184.763 38.6027 184.837 38.676 184.983 38.676L186.963 38.632C187.755 38.6027 188.401 38.2653 188.899 37.62C189.398 36.9747 189.662 36.124 189.691 35.068V22.132C189.691 21.0173 189.442 20.1373 188.943 19.492C188.445 18.8467 187.77 18.524 186.919 18.524H184.983C184.837 18.524 184.763 18.5973 184.763 18.744V38.456ZM213.744 17.996C213.744 18.1427 213.685 18.2747 213.568 18.392C213.48 18.48 213.363 18.524 213.216 18.524H204.02C203.873 18.524 203.8 18.5973 203.8 18.744V25.696C203.8 25.8427 203.873 25.916 204.02 25.916H209.3C209.447 25.916 209.564 25.9747 209.652 26.092C209.769 26.18 209.828 26.2973 209.828 26.444V30.712C209.828 30.8587 209.769 30.9907 209.652 31.108C209.564 31.196 209.447 31.24 209.3 31.24H204.02C203.873 31.24 203.8 31.3133 203.8 31.46V38.456C203.8 38.6027 203.873 38.676 204.02 38.676H213.216C213.363 38.676 213.48 38.7347 213.568 38.852C213.685 38.94 213.744 39.0573 213.744 39.204V43.472C213.744 43.6187 213.685 43.7507 213.568 43.868C213.48 43.956 213.363 44 213.216 44H198.124C197.977 44 197.845 43.956 197.728 43.868C197.64 43.7507 197.596 43.6187 197.596 43.472V13.728C197.596 13.5813 197.64 13.464 197.728 13.376C197.845 13.2587 197.977 13.2 198.124 13.2H213.216C213.363 13.2 213.48 13.2587 213.568 13.376C213.685 13.464 213.744 13.5813 213.744 13.728V17.996ZM223.577 44.352C220.878 44.352 218.722 43.56 217.109 41.976C215.496 40.392 214.689 38.28 214.689 35.64V21.56C214.689 18.92 215.496 16.808 217.109 15.224C218.722 13.64 220.878 12.848 223.577 12.848C226.276 12.848 228.432 13.64 230.045 15.224C231.688 16.808 232.509 18.92 232.509 21.56V35.64C232.509 38.28 231.688 40.392 230.045 41.976C228.432 43.56 226.276 44.352 223.577 44.352ZM223.577 39.028C224.398 39.028 225.058 38.7493 225.557 38.192C226.056 37.6053 226.305 36.8427 226.305 35.904V21.296C226.305 20.3573 226.056 19.6093 225.557 19.052C225.058 18.4653 224.398 18.172 223.577 18.172C222.756 18.172 222.096 18.4653 221.597 19.052C221.128 19.6093 220.893 20.3573 220.893 21.296V35.904C220.893 36.8427 221.128 37.6053 221.597 38.192C222.096 38.7493 222.756 39.028 223.577 39.028ZM242.086 44.352C240.385 44.352 238.889 44.0147 237.598 43.34C236.307 42.6653 235.31 41.7267 234.606 40.524C233.902 39.292 233.55 37.884 233.55 36.3V35.024C233.55 34.8773 233.594 34.76 233.682 34.672C233.799 34.5547 233.931 34.496 234.078 34.496H239.138C239.285 34.496 239.402 34.5547 239.49 34.672C239.607 34.76 239.666 34.8773 239.666 35.024V35.992C239.666 36.9013 239.901 37.6347 240.37 38.192C240.839 38.7493 241.426 39.028 242.13 39.028C242.834 39.028 243.421 38.764 243.89 38.236C244.359 37.708 244.594 37.0187 244.594 36.168C244.594 35.288 244.301 34.54 243.714 33.924C243.127 33.2787 241.983 32.34 240.282 31.108C238.815 30.052 237.627 29.1133 236.718 28.292C235.809 27.4707 235.031 26.4587 234.386 25.256C233.741 24.0533 233.418 22.66 233.418 21.076C233.418 18.5827 234.195 16.588 235.75 15.092C237.305 13.596 239.358 12.848 241.91 12.848C244.491 12.848 246.559 13.6253 248.114 15.18C249.698 16.7347 250.49 18.7733 250.49 21.296V22.352C250.49 22.4987 250.431 22.6307 250.314 22.748C250.226 22.836 250.109 22.88 249.962 22.88H244.902C244.755 22.88 244.623 22.836 244.506 22.748C244.418 22.6307 244.374 22.4987 244.374 22.352V21.164C244.374 20.2547 244.139 19.536 243.67 19.008C243.23 18.4507 242.643 18.172 241.91 18.172C241.206 18.172 240.634 18.436 240.194 18.964C239.754 19.4627 239.534 20.1667 239.534 21.076C239.534 21.956 239.813 22.7333 240.37 23.408C240.927 24.0827 242.027 25.0213 243.67 26.224C245.489 27.5733 246.853 28.6733 247.762 29.524C248.701 30.3453 249.419 31.2693 249.918 32.296C250.446 33.2933 250.71 34.496 250.71 35.904C250.71 38.4853 249.918 40.5387 248.334 42.064C246.75 43.5893 244.667 44.352 242.086 44.352Z" fill="white"/>
<path d="M82.3037 13.156C83.917 13.156 85.3544 13.552 86.6157 14.344C87.877 15.136 88.845 16.2507 89.5197 17.688C90.2237 19.096 90.5757 20.7093 90.5757 22.528C90.5757 25.256 89.8424 27.4413 88.3757 29.084C86.909 30.7267 84.9877 31.548 82.6117 31.548H79.3117C79.165 31.548 79.0917 31.6213 79.0917 31.768V43.472C79.0917 43.6187 79.033 43.7507 78.9157 43.868C78.8277 43.956 78.7104 44 78.5637 44H73.4157C73.269 44 73.137 43.956 73.0197 43.868C72.9317 43.7507 72.8877 43.6187 72.8877 43.472V13.684C72.8877 13.5373 72.9317 13.42 73.0197 13.332C73.137 13.2147 73.269 13.156 73.4157 13.156H82.3037ZM81.2477 26.708C82.1864 26.708 82.9344 26.356 83.4917 25.652C84.0784 24.9187 84.3717 23.9213 84.3717 22.66C84.3717 21.3693 84.0784 20.3573 83.4917 19.624C82.9344 18.8907 82.1864 18.524 81.2477 18.524H79.3117C79.165 18.524 79.0917 18.5973 79.0917 18.744V26.488C79.0917 26.6347 79.165 26.708 79.3117 26.708H81.2477ZM100.073 44.352C97.3742 44.352 95.2182 43.56 93.6048 41.976C91.9915 40.392 91.1848 38.28 91.1848 35.64V21.56C91.1848 18.92 91.9915 16.808 93.6048 15.224C95.2182 13.64 97.3742 12.848 100.073 12.848C102.771 12.848 104.927 13.64 106.541 15.224C108.183 16.808 109.005 18.92 109.005 21.56V35.64C109.005 38.28 108.183 40.392 106.541 41.976C104.927 43.56 102.771 44.352 100.073 44.352ZM100.073 39.028C100.894 39.028 101.554 38.7493 102.053 38.192C102.551 37.6053 102.801 36.8427 102.801 35.904V21.296C102.801 20.3573 102.551 19.6093 102.053 19.052C101.554 18.4653 100.894 18.172 100.073 18.172C99.2515 18.172 98.5915 18.4653 98.0928 19.052C97.6235 19.6093 97.3888 20.3573 97.3888 21.296V35.904C97.3888 36.8427 97.6235 37.6053 98.0928 38.192C98.5915 38.7493 99.2515 39.028 100.073 39.028ZM122.806 44C122.483 44 122.278 43.8533 122.19 43.56L118.802 31.416C118.743 31.2987 118.67 31.24 118.582 31.24H117.086C116.939 31.24 116.866 31.3133 116.866 31.46V43.472C116.866 43.6187 116.807 43.7507 116.69 43.868C116.602 43.956 116.484 44 116.338 44H111.19C111.043 44 110.911 43.956 110.794 43.868C110.706 43.7507 110.662 43.6187 110.662 43.472V13.728C110.662 13.5813 110.706 13.464 110.794 13.376C110.911 13.2587 111.043 13.2 111.19 13.2H120.078C121.691 13.2 123.128 13.596 124.39 14.388C125.651 15.1507 126.619 16.236 127.294 17.644C127.998 19.052 128.35 20.6653 128.35 22.484C128.35 24.2147 128.012 25.74 127.338 27.06C126.692 28.38 125.783 29.4067 124.61 30.14C124.551 30.1693 124.507 30.2133 124.478 30.272C124.448 30.3013 124.448 30.3453 124.478 30.404L128.526 43.384L128.57 43.56C128.57 43.8533 128.408 44 128.086 44H122.806ZM117.086 18.524C116.939 18.524 116.866 18.5973 116.866 18.744V26.268C116.866 26.4147 116.939 26.488 117.086 26.488H119.066C119.975 26.488 120.708 26.136 121.266 25.432C121.852 24.6987 122.146 23.7307 122.146 22.528C122.146 21.296 121.852 20.328 121.266 19.624C120.708 18.8907 119.975 18.524 119.066 18.524H117.086ZM142.197 13.728C142.197 13.5813 142.241 13.464 142.329 13.376C142.446 13.2587 142.578 13.2 142.725 13.2H147.829C147.975 13.2 148.093 13.2587 148.181 13.376C148.298 13.464 148.357 13.5813 148.357 13.728V43.472C148.357 43.6187 148.298 43.7507 148.181 43.868C148.093 43.956 147.975 44 147.829 44H142.021C141.727 44 141.537 43.8533 141.449 43.56L135.993 26.532C135.963 26.444 135.905 26.4147 135.817 26.444C135.758 26.444 135.729 26.488 135.729 26.576L135.773 43.472C135.773 43.6187 135.714 43.7507 135.597 43.868C135.509 43.956 135.391 44 135.245 44H130.141C129.994 44 129.862 43.956 129.745 43.868C129.657 43.7507 129.613 43.6187 129.613 43.472V13.728C129.613 13.5813 129.657 13.464 129.745 13.376C129.862 13.2587 129.994 13.2 130.141 13.2H135.905C136.198 13.2 136.389 13.3467 136.477 13.64L141.977 30.668C142.006 30.756 142.05 30.8 142.109 30.8C142.197 30.7707 142.241 30.712 142.241 30.624L142.197 13.728Z" fill="#8AB4F8"/>
<rect x="209" y="41.4336" width="45.5574" height="17" transform="rotate(-7.61432 209 41.4336)" fill="#8AB4F8"/>
<path d="M221.857 54.0149L219.412 51.3402L218.083 54.5378L214.769 54.9968L217.429 49.1617L213.199 44.5383L216.632 44.0628L219.007 46.6715L220.302 43.5544L223.615 43.0953L220.988 48.8352L225.289 53.5394L221.857 54.0149ZM235.069 52.1844L232.624 49.5096L231.295 52.7072L227.982 53.1663L230.642 47.3311L226.412 42.7078L229.844 42.2323L232.22 44.841L233.514 41.7239L236.828 41.2648L234.2 47.0046L238.502 51.7089L235.069 52.1844ZM248.282 50.3539L245.837 47.6791L244.508 50.8767L241.195 51.3358L243.854 45.5006L239.625 40.8773L243.057 40.4018L245.432 43.0105L246.727 39.8933L250.04 39.4343L247.413 45.1741L251.714 49.8784L248.282 50.3539Z" fill="#191919"/>
</svg>
