<?xml version="1.0" encoding="UTF-8"?>
<svg id="Layer_1" data-name="Layer 1" xmlns="http://www.w3.org/2000/svg" viewBox="0 0 296.45 64">
  <defs>
    <style>
      .cls-1 {
        fill: #0c2e3f;
      }

      .cls-2 {
        fill: #ed1c24;
      }
    </style>
  </defs>
  <path class="cls-2" d="M44.23,63.55l-13.06-31.88-4.14,10.11c-.11.27-.38.45-.67.45H1.62c-.4,0-.72-.32-.72-.72v-6.12c0-.4.32-.72.72-.72h20.14l8.73-21.32c.25-.6,1.09-.6,1.34,0l13.06,31.87,4.14-10.11c.11-.27.38-.45.67-.45h29.24c1.28,0,2.46-.55,3.32-1.54.92-1.06,1.32-2.44,1.11-3.88-.32-2.26-2.33-3.96-4.69-3.96h-9.27c-3.45,0-6.74-1.51-9.03-4.14-2.34-2.7-3.4-6.3-2.9-9.9.84-5.97,6.08-10.47,12.18-10.47h16.22c.4,0,.72.32.72.72v6.12c0,.4-.32.72-.72.72h-16.22c-2.36,0-4.37,1.7-4.69,3.96-.2,1.44.19,2.82,1.11,3.88.86.99,2.04,1.54,3.32,1.54h9.27c6.11,0,11.35,4.5,12.18,10.47.5,3.59-.55,7.2-2.9,9.9-2.29,2.63-5.58,4.14-9.03,4.14h-24.65l-8.73,21.32c-.25.6-1.09.6-1.34,0Z"/>
  <path class="cls-1" d="M112.25,18.73c-1.73,0-3.17-.25-4.32-.74-1.14-.5-2.01-1.14-2.6-1.94-.59-.8-.9-1.65-.94-2.55,0-.14.06-.26.17-.38.11-.11.25-.17.4-.17h3.28c.24,0,.43.04.56.13s.25.2.35.34c.14.26.33.51.59.75.25.24.59.44,1,.59s.92.22,1.51.22c1.01,0,1.76-.15,2.28-.47.51-.31.77-.74.77-1.27,0-.4-.14-.72-.42-.96-.28-.24-.72-.46-1.34-.66s-1.44-.4-2.46-.61c-1.32-.28-2.44-.64-3.37-1.08-.93-.44-1.63-1.02-2.12-1.74s-.73-1.62-.73-2.69.3-2,.9-2.83,1.43-1.48,2.51-1.95c1.07-.47,2.35-.7,3.82-.7,1.2,0,2.25.15,3.16.47.91.31,1.68.73,2.3,1.25.62.52,1.1,1.07,1.42,1.65.32.58.49,1.15.51,1.7,0,.14-.05.26-.14.38-.1.11-.23.17-.4.17h-3.43c-.19,0-.36-.04-.49-.1-.14-.07-.26-.18-.36-.34-.1-.38-.38-.72-.82-1-.44-.29-1.02-.43-1.73-.43-.76,0-1.36.14-1.78.4-.43.27-.64.68-.64,1.24,0,.35.12.65.35.91.23.26.62.49,1.17.68s1.3.39,2.25.6c1.58.3,2.85.66,3.82,1.11.97.44,1.69,1.01,2.15,1.72.46.7.69,1.58.69,2.64,0,1.18-.34,2.19-1.02,3.04-.68.85-1.6,1.5-2.77,1.96s-2.53.69-4.07.69Z"/>
  <path class="cls-1" d="M127.18,18.47c-.19,0-.35-.07-.47-.19-.12-.13-.18-.28-.18-.46V4.34h-4.63c-.19,0-.35-.07-.47-.2-.12-.13-.18-.28-.18-.46V.91c0-.19.06-.35.18-.47.12-.12.28-.18.47-.18h13.99c.19,0,.35.06.47.18.12.12.18.28.18.47v2.78c0,.17-.06.33-.18.46-.12.13-.28.2-.47.2h-4.63v13.47c0,.17-.06.32-.18.46-.12.13-.28.19-.47.19h-3.43Z"/>
  <path class="cls-1" d="M136.03,18.47c-.14,0-.26-.06-.38-.17-.11-.11-.17-.24-.17-.38,0-.09,0-.17.03-.23l6.11-16.7c.05-.19.16-.36.32-.51s.39-.22.69-.22h3.85c.29,0,.52.07.69.22s.27.32.32.51l6.09,16.7c.03.07.05.15.05.23,0,.14-.06.26-.17.38-.11.11-.25.17-.4.17h-3.2c-.26,0-.46-.07-.59-.19-.13-.13-.21-.25-.25-.35l-1.01-2.65h-6.95l-.99,2.65c-.03.1-.11.22-.23.35-.12.13-.33.19-.62.19h-3.2ZM142.14,11.52h4.84l-2.42-6.87-2.42,6.87Z"/>
  <path class="cls-1" d="M156.34,18.47c-.19,0-.35-.07-.47-.19-.12-.13-.18-.28-.18-.46V.91c0-.19.06-.35.18-.47.12-.12.28-.18.47-.18h7.07c2.25,0,4.02.52,5.31,1.55,1.28,1.03,1.93,2.49,1.93,4.38,0,1.23-.3,2.27-.88,3.12-.59.85-1.37,1.49-2.34,1.92l3.56,6.4c.05.1.08.2.08.29,0,.14-.06.26-.17.38-.11.11-.24.17-.38.17h-3.46c-.33,0-.57-.08-.73-.25-.16-.16-.27-.32-.34-.46l-2.96-5.72h-2.65v5.77c0,.17-.06.32-.19.46-.13.13-.29.19-.48.19h-3.36ZM160.38,8.35h2.99c.82,0,1.43-.2,1.83-.6.41-.4.61-.94.61-1.61s-.19-1.22-.59-1.64c-.39-.41-1.01-.62-1.86-.62h-2.99v4.48Z"/>
  <path class="cls-1" d="M180.46,18.73c-1.73,0-3.17-.25-4.32-.74-1.14-.5-2.01-1.14-2.6-1.94-.59-.8-.9-1.65-.94-2.55,0-.14.06-.26.17-.38.11-.11.25-.17.4-.17h3.28c.24,0,.43.04.56.13s.25.2.35.34c.14.26.33.51.59.75.25.24.59.44,1,.59s.92.22,1.51.22c1.01,0,1.76-.15,2.28-.47.51-.31.77-.74.77-1.27,0-.4-.14-.72-.42-.96-.28-.24-.72-.46-1.34-.66s-1.44-.4-2.46-.61c-1.32-.28-2.44-.64-3.37-1.08-.93-.44-1.63-1.02-2.12-1.74s-.73-1.62-.73-2.69.3-2,.9-2.83,1.43-1.48,2.51-1.95c1.07-.47,2.35-.7,3.82-.7,1.2,0,2.25.15,3.16.47.91.31,1.68.73,2.3,1.25.62.52,1.1,1.07,1.42,1.65.32.58.49,1.15.51,1.7,0,.14-.05.26-.14.38-.1.11-.23.17-.4.17h-3.43c-.19,0-.36-.04-.49-.1-.14-.07-.26-.18-.36-.34-.1-.38-.38-.72-.82-1-.44-.29-1.02-.43-1.73-.43-.76,0-1.36.14-1.78.4-.43.27-.64.68-.64,1.24,0,.35.12.65.35.91.23.26.62.49,1.17.68s1.3.39,2.25.6c1.58.3,2.85.66,3.82,1.11.97.44,1.69,1.01,2.15,1.72.46.7.69,1.58.69,2.64,0,1.18-.34,2.19-1.02,3.04-.68.85-1.6,1.5-2.77,1.96s-2.53.69-4.07.69Z"/>
  <g>
    <path class="cls-1" d="M106.85,42.3c-.19,0-.34-.06-.46-.19-.12-.13-.18-.28-.18-.45v-16.79c0-.19.06-.34.18-.46s.28-.18.46-.18h6.72c1.69,0,3.13.27,4.31.81s2.1,1.33,2.74,2.38c.64,1.04.98,2.33,1.03,3.86.02.76.03,1.42.03,1.99s0,1.22-.03,1.96c-.07,1.6-.41,2.93-1.02,3.98-.61,1.05-1.5,1.83-2.66,2.34-1.16.51-2.59.76-4.28.76h-6.85ZM110.86,38.58h2.71c.74,0,1.36-.12,1.85-.35.49-.23.86-.6,1.11-1.1s.38-1.15.4-1.96c.03-.5.06-.95.06-1.34,0-.4,0-.79,0-1.19,0-.4-.03-.83-.06-1.32-.03-1.17-.34-2.03-.92-2.57-.58-.54-1.43-.81-2.57-.81h-2.58v10.64Z"/>
    <path class="cls-1" d="M123.29,42.3c-.14,0-.26-.06-.38-.17-.11-.11-.17-.24-.17-.38,0-.09,0-.16.03-.23l6.07-16.59c.05-.19.16-.36.32-.5.16-.15.39-.22.69-.22h3.82c.29,0,.52.07.68.22.16.15.27.31.32.5l6.05,16.59c.03.07.05.15.05.23,0,.14-.06.26-.17.38s-.25.17-.4.17h-3.18c-.26,0-.45-.06-.58-.19-.13-.13-.21-.25-.25-.35l-1.01-2.63h-6.9l-.98,2.63c-.04.1-.11.22-.23.35-.12.13-.33.19-.62.19h-3.18ZM129.36,35.4h4.81l-2.4-6.82-2.4,6.82Z"/>
    <path class="cls-1" d="M145.61,42.3c-.19,0-.34-.06-.47-.19-.12-.13-.18-.28-.18-.45v-13.38h-4.6c-.19,0-.34-.06-.46-.19-.12-.13-.18-.28-.18-.45v-2.76c0-.19.06-.34.18-.46.12-.12.28-.18.46-.18h13.9c.19,0,.34.06.47.18.12.12.18.28.18.46v2.76c0,.17-.06.32-.18.45-.12.13-.28.19-.47.19h-4.6v13.38c0,.17-.06.32-.18.45-.12.13-.28.19-.46.19h-3.41Z"/>
    <path class="cls-1" d="M154.39,42.3c-.14,0-.26-.06-.38-.17-.11-.11-.17-.24-.17-.38,0-.09,0-.16.03-.23l6.07-16.59c.05-.19.16-.36.32-.5.16-.15.39-.22.69-.22h3.82c.29,0,.52.07.68.22.16.15.27.31.32.5l6.05,16.59c.03.07.05.15.05.23,0,.14-.06.26-.17.38s-.25.17-.4.17h-3.18c-.26,0-.45-.06-.58-.19-.13-.13-.21-.25-.25-.35l-1.01-2.63h-6.9l-.98,2.63c-.04.1-.11.22-.23.35-.12.13-.33.19-.62.19h-3.18ZM160.46,35.4h4.81l-2.4-6.82-2.4,6.82Z"/>
    <path class="cls-1" d="M186.2,42.55c-1.62,0-3.01-.27-4.19-.8-1.17-.53-2.08-1.32-2.73-2.35-.65-1.03-1-2.32-1.07-3.85-.02-.71-.03-1.46-.03-2.27s0-1.58.03-2.33c.07-1.5.43-2.77,1.08-3.82.65-1.05,1.57-1.84,2.74-2.38,1.17-.53,2.56-.8,4.16-.8,1.14,0,2.19.14,3.15.43.96.28,1.81.7,2.53,1.24.72.54,1.29,1.2,1.69,1.96.4.77.62,1.63.63,2.6.02.16-.03.28-.14.39-.11.1-.25.16-.4.16h-3.49c-.22,0-.4-.05-.52-.14-.12-.09-.22-.27-.31-.53-.24-.91-.63-1.54-1.18-1.87-.54-.34-1.21-.5-2-.5-.95,0-1.7.26-2.25.79-.55.53-.85,1.4-.9,2.62-.05,1.41-.05,2.86,0,4.34.05,1.22.35,2.1.9,2.62.55.53,1.3.79,2.25.79.79,0,1.46-.17,2.02-.52.55-.34.94-.96,1.16-1.86.07-.26.17-.43.3-.53s.31-.14.53-.14h3.49c.16,0,.29.05.4.16.11.1.16.23.14.39-.02.96-.23,1.83-.63,2.6-.4.77-.97,1.42-1.69,1.96-.72.54-1.57.96-2.53,1.24-.96.28-2.02.43-3.15.43Z"/>
    <path class="cls-1" d="M195.65,42.3c-.14,0-.26-.06-.38-.17-.11-.11-.17-.24-.17-.38,0-.09,0-.16.03-.23l6.07-16.59c.05-.19.16-.36.32-.5.16-.15.39-.22.69-.22h3.82c.29,0,.52.07.68.22.16.15.27.31.32.5l6.05,16.59c.03.07.05.15.05.23,0,.14-.06.26-.17.38s-.25.17-.4.17h-3.18c-.26,0-.45-.06-.58-.19-.13-.13-.21-.25-.25-.35l-1.01-2.63h-6.9l-.98,2.63c-.04.1-.11.22-.23.35-.12.13-.33.19-.62.19h-3.18ZM201.72,35.4h4.81l-2.4-6.82-2.4,6.82Z"/>
    <path class="cls-1" d="M217.97,42.3c-.19,0-.34-.06-.47-.19-.12-.13-.18-.28-.18-.45v-13.38h-4.6c-.19,0-.34-.06-.46-.19-.12-.13-.18-.28-.18-.45v-2.76c0-.19.06-.34.18-.46.12-.12.28-.18.46-.18h13.9c.19,0,.34.06.47.18.12.12.18.28.18.46v2.76c0,.17-.06.32-.18.45-.12.13-.28.19-.47.19h-4.6v13.38c0,.17-.06.32-.18.45-.12.13-.28.19-.46.19h-3.41Z"/>
    <path class="cls-1" d="M226.76,42.3c-.14,0-.26-.06-.38-.17-.11-.11-.17-.24-.17-.38,0-.09,0-.16.03-.23l6.07-16.59c.05-.19.16-.36.32-.5.16-.15.39-.22.69-.22h3.82c.29,0,.52.07.68.22.16.15.27.31.32.5l6.05,16.59c.03.07.05.15.05.23,0,.14-.06.26-.17.38s-.25.17-.4.17h-3.18c-.26,0-.45-.06-.58-.19-.13-.13-.21-.25-.25-.35l-1.01-2.63h-6.9l-.98,2.63c-.04.1-.11.22-.23.35-.12.13-.33.19-.62.19h-3.18ZM232.83,35.4h4.81l-2.4-6.82-2.4,6.82Z"/>
    <path class="cls-1" d="M246.93,42.3c-.19,0-.34-.06-.46-.19-.12-.13-.18-.28-.18-.45v-16.79c0-.19.06-.34.18-.46s.28-.18.46-.18h3.41c.19,0,.34.06.46.18.12.12.18.28.18.46v13.54h7.83c.19,0,.34.06.46.19.12.13.18.29.18.48v2.58c0,.17-.06.32-.18.45-.12.13-.28.19-.46.19h-11.88Z"/>
    <path class="cls-1" d="M268.9,42.55c-1.58,0-2.96-.26-4.13-.78-1.17-.52-2.08-1.3-2.74-2.34s-1.02-2.35-1.08-3.92c-.02-.74-.03-1.49-.03-2.23s0-1.49.03-2.23c.07-1.55.43-2.86,1.1-3.92.66-1.06,1.58-1.86,2.76-2.39,1.18-.53,2.54-.8,4.09-.8s2.94.27,4.11.8c1.17.53,2.09,1.33,2.76,2.39.67,1.06,1.03,2.36,1.08,3.92.03.74.05,1.49.05,2.23s-.02,1.49-.05,2.23c-.05,1.57-.41,2.87-1.07,3.92s-1.58,1.82-2.75,2.34c-1.17.52-2.55.78-4.13.78ZM268.9,38.83c.91,0,1.66-.28,2.24-.83.58-.55.88-1.43.92-2.63.03-.76.05-1.47.05-2.14s-.02-1.37-.05-2.09c-.03-.81-.19-1.47-.45-1.98-.27-.51-.63-.88-1.1-1.12s-1-.36-1.6-.36-1.11.12-1.58.36c-.47.24-.84.62-1.11,1.12s-.43,1.17-.46,1.98c-.02.72-.03,1.42-.03,2.09s0,1.39.03,2.14c.05,1.21.37,2.08.94,2.63.58.55,1.31.83,2.21.83Z"/>
    <path class="cls-1" d="M287.37,42.55c-1.64,0-3.04-.27-4.22-.81-1.18-.54-2.09-1.33-2.74-2.38-.65-1.04-1-2.31-1.07-3.81-.02-.74-.03-1.53-.03-2.36s0-1.63.03-2.39c.07-1.46.43-2.7,1.08-3.72.65-1.02,1.58-1.79,2.76-2.33,1.19-.53,2.58-.8,4.19-.8,1.29,0,2.44.16,3.44.48,1,.32,1.84.75,2.52,1.28.68.53,1.2,1.12,1.56,1.76.36.64.55,1.27.57,1.89,0,.16-.06.28-.17.39-.11.1-.25.16-.4.16h-3.77c-.19,0-.33-.03-.43-.09-.09-.06-.18-.15-.25-.27-.12-.26-.3-.53-.53-.81s-.55-.53-.96-.74c-.41-.21-.93-.31-1.59-.31-.96,0-1.73.26-2.3.77-.57.52-.88,1.34-.93,2.48-.05,1.48-.05,2.98,0,4.5.05,1.21.37,2.08.96,2.61.58.53,1.37.8,2.35.8.64,0,1.21-.11,1.72-.34.51-.22.91-.57,1.2-1.05.29-.47.44-1.08.44-1.82v-.49h-2.43c-.19,0-.34-.07-.47-.19-.12-.13-.18-.29-.18-.48v-1.91c0-.19.06-.35.18-.48.12-.13.28-.19.47-.19h6.51c.19,0,.34.06.46.19.12.13.18.29.18.48v2.95c0,1.48-.34,2.75-1.01,3.8s-1.62,1.86-2.85,2.42-2.67.84-4.3.84Z"/>
  </g>
</svg>